PathFileType	4	(X/Y/Z)	/Users/itak/Documents/Research/Walk-IL/dataset/trc/00379_00012.trc
DataRate	CameraRate	NumFrames	NumMarkers	Units	OrigDataRate	OrigDataStartFrame	OrigNumFrames
100.000000	100.000000	4	56	mm	100.000000	265	354
Frame#	Time	RPSI			LPSI			L3			STRN			T10			C7			CLAV			RBAK			LBAK			LSHO			LUPA			LAEL			LAOL			LWTS			LWPS			LFRA			LIFD			LHPS			LHTS			RSHO			RUPA			RAEL			RAOL			RWTS			RWPS			RFRA			RIFD			RBHD			LFHD			RFHD			LBHD			LHIP			RASI			LASI			LKNE			LTHI			LANK			LTIP			LTOE			LMT1			LMT5			LHEE			RKNE			RTHI			RANK			RTIP			RTOE			RMT1			RMT5			RHEE			RHTS			RHPS			RHIP			*53			*54			*55			
		X1	Y1	Z1	X2	Y2	Z2	X3	Y3	Z3	X4	Y4	Z4	X5	Y5	Z5	X6	Y6	Z6	X7	Y7	Z7	X8	Y8	Z8	X9	Y9	Z9	X10	Y10	Z10	X11	Y11	Z11	X12	Y12	Z12	X13	Y13	Z13	X14	Y14	Z14	X15	Y15	Z15	X16	Y16	Z16	X17	Y17	Z17	X18	Y18	Z18	X19	Y19	Z19	X20	Y20	Z20	X21	Y21	Z21	X22	Y22	Z22	X23	Y23	Z23	X24	Y24	Z24	X25	Y25	Z25	X26	Y26	Z26	X27	Y27	Z27	X28	Y28	Z28	X29	Y29	Z29	X30	Y30	Z30	X31	Y31	Z31	X32	Y32	Z32	X33	Y33	Z33	X34	Y34	Z34	X35	Y35	Z35	X36	Y36	Z36	X37	Y37	Z37	X38	Y38	Z38	X39	Y39	Z39	X40	Y40	Z40	X41	Y41	Z41	X42	Y42	Z42	X43	Y43	Z43	X44	Y44	Z44	X45	Y45	Z45	X46	Y46	Z46	X47	Y47	Z47	X48	Y48	Z48	X49	Y49	Z49	X50	Y50	Z50	X51	Y51	Z51	X52	Y52	Z52	X53	Y53	Z53	X54	Y54	Z54	X55	Y55	Z55	X56	Y56	Z56	

266	2.65	988.8091430664062	956.3049926757812	231.1924438476562	958.2652587890625	938.2559204101562	102.803352355957	967.3138427734375	1022.165100097656	166.1181182861328	1170.396484375	1206.495361328125	128.579833984375	937.8671264648438	1121.429565429688	160.1287994384766	934.88525390625	1373.94873046875	145.7095642089844	1100.403442382812	1316.328369140625	137.0789947509766	918.5167846679688	1221.118286132812	212.5432891845703	912.8457641601562	1335.395263671875	46.04041290283203	992.3175048828125	1363.985595703125	-12.84761142730713	974.46728515625	1240.964111328125	-77.25196838378906	1017.62060546875	1050.693481445312	-105.0230026245117	982.05615234375	1019.406494140625	-33.87743759155273	1145.518432617188	853.175537109375	-87.14412689208984	1082.713745117188	831.8384399414062	-137.4493408203125	1044.862426757812	949.452392578125	-119.4002380371094	1162.014038085938	672.867919921875	-96.02994537353516	1108.527465820312	748.848876953125	-134.8967590332031	1168.793334960938	758.6243286132812	-113.439697265625	1004.929260253906	1358.869262695312	297.8163757324219	998.192138671875	1293.578491210938	354.9838256835938	1007.353332519531	1035.080932617188	393.845458984375	997.037841796875	1022.415161132812	300.2546691894531	1158.999877929688	837.2513427734375	379.3219299316406	1112.470092773438	820.7554321289062	434.404052734375	1036.234375	971.16650390625	412.8136596679688	1182.48779296875	667.470703125	383.4229736328125	967.1127319335938	1566.08544921875	230.42529296875	1096.175903320312	1581.166625976562	78.01461029052734	1097.485595703125	1586.32861328125	201.650634765625	948.236083984375	1557.24169921875	70.08961486816406	1021.456665039062	931.78955078125	-28.90897178649902	1210.3916015625	967.08056640625	239.2852325439453	1137.625610351562	941.3489990234375	-12.06839275360107	1125.914306640625	453.836181640625	-42.72892761230469	1104.735961914062	586.4207763671875	-40.24064254760742	759.0184936523438	182.727783203125	10.15010833740234	938.9497680664062	308.369140625	-30.14700508117676	904.2483520507812	35.16234970092773	71.62034606933594	859.2042846679688	96.78301239013672	99.72354888916016	829.4481811523438	76.5654296875	1.591146111488342	745.4524536132812	217.9898834228516	66.36529541015625	1215.485961914062	468.9003295898438	261.6165161132812	1207.23095703125	734.01513671875	299.0179748535156	1185.708862304688	43.69770431518555	217.1714324951172	1232.7802734375	342.8147277832031	240.0268707275391	1354.821166992188	25.41575050354004	127.07275390625	1275.422973632812	36.03572845458984	109.5602874755859	1267.607299804688	32.79459762573242	211.8861999511719	1105.505615234375	36.97459030151367	173.0326690673828	1189.857421875	737.0062866210938	404.2198181152344	1129.119384765625	733.6360473632812	436.6923522949219	1094.913330078125	949.9102783203125	323.2696838378906	nan	nan	nan	nan	nan	nan	nan	nan	nan	
267	2.66	994.0769653320312	956.7820434570312	230.5866394042969	963.719970703125	938.3474731445312	102.1308059692383	972.7522583007812	1022.441955566406	165.7897186279297	1176.337524414062	1207.010864257812	128.1795043945312	943.7669067382812	1122.035522460938	160.0877227783203	941.05908203125	1374.570556640625	146.2497100830078	1106.489501953125	1316.916259765625	136.8851013183594	924.8269653320312	1221.7109375	213.2118988037109	918.542236328125	1335.97802734375	46.75696182250977	997.8609008789062	1364.513305664062	-12.65526294708252	979.0289306640625	1241.369384765625	-76.73809814453125	1020.132751464844	1050.713134765625	-104.0458908081055	985.687255859375	1019.925476074219	-32.15814971923828	1144.18896484375	850.0758666992188	-85.51311492919922	1080.901123046875	830.3992919921875	-135.89892578125	1045.60205078125	948.9118041992188	-118.1464538574219	1154.397216796875	668.7793579101562	-92.99705505371094	1104.017822265625	746.6187744140625	-132.8863983154297	1164.3232421875	754.3359985351562	-110.9615783691406	1011.819274902344	1359.567138671875	298.0426635742188	1005.791748046875	1294.2822265625	355.5270690917969	1018.213562011719	1036.11328125	396.1471557617188	1005.625427246094	1022.827941894531	302.41748046875	1174.048095703125	841.814453125	381.2867126464844	1128.666015625	824.58349609375	436.9756164550781	1048.552978515625	972.833740234375	415.1058349609375	1202.386352539062	672.8501586914062	386.8146057128906	973.5647583007812	1566.744140625	230.6818695068359	1102.2412109375	1581.711181640625	77.950439453125	1103.8515625	1586.970581054688	201.5475616455078	954.3016967773438	1557.773193359375	70.36469268798828	1027.482177734375	931.2319946289062	-28.46953964233398	1215.803344726562	967.5322265625	239.3988494873047	1143.248413085938	941.8986206054688	-11.84890270233154	1138.214721679688	455.2420043945312	-43.98343276977539	1115.220703125	587.180419921875	-41.22942352294922	773.4996948242188	182.2306976318359	9.213536262512207	952.7246704101562	308.7907409667969	-31.48191070556641	922.9637451171875	35.69150543212891	62.94208908081055	876.8161010742188	95.07308197021484	94.38064575195312	846.189453125	78.42780303955078	-4.23741340637207	759.946533203125	215.4521179199219	66.76329040527344	1217.870239257812	468.7179565429688	261.6402282714844	1211.766357421875	734.1398315429688	298.6820678710938	1185.709838867188	43.43182373046875	217.0496673583984	1234.360595703125	342.57275390625	239.9835510253906	1354.8671875	25.28739929199219	127.070556640625	1275.442016601562	35.82077789306641	109.4675445556641	1267.589111328125	32.74696350097656	211.888916015625	1105.387573242188	36.86955261230469	173.0071258544922	1207.787963867188	742.6692504882812	406.8198547363281	1147.463989257812	737.9974365234375	439.8406066894531	1100.0087890625	950.5340576171875	323.0591735839844	nan	nan	nan	nan	nan	nan	nan	nan	nan	
268	2.67	999.0825805664062	957.1806030273438	229.9233551025391	968.9229125976562	938.4008178710938	101.401969909668	977.9700927734375	1022.766479492188	165.4370574951172	1182.10400390625	1207.522827148438	127.7486343383789	949.548828125	1122.638305664062	159.9768981933594	947.0658569335938	1375.190185546875	146.7227630615234	1112.40625	1317.518920898438	136.6572570800781	931.0089111328125	1222.2841796875	213.7825927734375	924.0979614257812	1336.573608398438	47.42533493041992	1003.259033203125	1365.081176757812	-12.50962162017822	983.2886352539062	1241.863037109375	-76.2886962890625	1022.154052734375	1050.742919921875	-103.1720275878906	988.6690673828125	1020.555786132812	-30.55593109130859	1142.803588867188	847.5048217773438	-83.98989105224609	1079.170532226562	829.3049926757812	-134.4840545654297	1046.025756835938	948.5004272460938	-116.9964065551758	1147.217163085938	665.5086669921875	-89.89707183837891	1099.810546875	744.8460083007812	-130.935791015625	1160.060302734375	750.6777954101562	-108.4994430541992	1018.495727539062	1360.228271484375	298.2123718261719	1013.142761230469	1294.954711914062	355.982421875	1028.72900390625	1037.157104492188	398.3196411132812	1013.539245605469	1023.274291992188	304.2497253417969	1188.76318359375	846.5239868164062	383.2217102050781	1144.4892578125	828.5489501953125	439.462890625	1060.536376953125	974.5549926757812	417.2762451171875	1221.923217773438	678.5089111328125	390.087890625	979.8878784179688	1567.403076171875	230.90087890625	1108.197509765625	1582.231323242188	77.8726806640625	1110.09326171875	1587.578979492188	201.4260101318359	960.2521362304688	1558.333618164062	70.60880279541016	1033.259033203125	930.8047485351562	-28.19223785400391	1220.928344726562	967.9348754882812	239.5354461669922	1148.696533203125	942.4647827148438	-11.67114925384521	1150.169311523438	456.7875366210938	-45.12164306640625	1125.361083984375	588.0530395507812	-42.13247680664062	788.394287109375	180.8491058349609	8.147151947021484	966.4611206054688	308.906005859375	-32.74792861938477	942.3765258789062	36.16959762573242	54.48974609375	894.9329223632812	92.99251556396484	89.09520721435547	863.628173828125	79.84493255615234	-9.964146614074707	774.6829833984375	211.967529296875	66.91241455078125	1220.056274414062	468.5084533691406	261.6505126953125	1215.9560546875	734.17333984375	298.4094543457031	1185.720458984375	43.19287109375	216.9040069580078	1235.807373046875	342.3179931640625	239.9002075195312	1354.910888671875	25.22425270080566	127.0823135375977	1275.432373046875	35.54206085205078	109.3960189819336	1267.580322265625	32.72041702270508	211.8757629394531	1105.298950195312	36.7150993347168	172.9587707519531	1225.360961914062	748.5724487304688	409.3665161132812	1165.4609375	742.5700073242188	442.8693542480469	1104.78857421875	951.0518798828125	322.8211059570312	nan	nan	nan	nan	nan	nan	nan	nan	nan	
269	2.68	1003.855224609375	957.4819946289062	229.2296905517578	973.8843994140625	938.401123046875	100.6400375366211	982.962646484375	1023.15087890625	165.0767669677734	1187.717163085938	1208.025268554688	127.2857131958008	955.2017211914062	1123.23828125	159.8130950927734	952.916259765625	1375.80908203125	147.1273040771484	1118.166870117188	1318.122680664062	136.3924255371094	937.0541381835938	1222.85205078125	214.2667694091797	929.5269165039062	1337.182373046875	48.03883361816406	1008.523559570312	1365.6787109375	-12.40861415863037	987.2763671875	1242.445678710938	-75.9071044921875	1023.757385253906	1050.797241210938	-102.3988647460938	991.0572509765625	1021.291381835938	-29.10399055480957	1141.3876953125	845.4093017578125	-82.60576629638672	1077.509887695312	828.4817504882812	-133.2000732421875	1046.19091796875	948.207275390625	-115.9616851806641	1140.629638671875	662.9823608398438	-86.7933349609375	1095.931396484375	743.4555053710938	-129.0487060546875	1156.076538085938	747.6172485351562	-106.1324081420898	1024.97412109375	1360.857788085938	298.3250427246094	1020.250854492188	1295.594604492188	356.351806640625	1038.8828125	1038.198974609375	400.3473205566406	1020.952697753906	1023.697875976562	305.7571105957031	1203.120483398438	851.361083984375	385.1312561035156	1159.86572265625	832.6194458007812	441.8448791503906	1072.161010742188	976.3157958984375	419.3104858398438	1241.065795898438	684.4342041015625	393.2360229492188	986.0764770507812	1568.050903320312	231.0805358886719	1114.04345703125	1582.738647460938	77.78127288818359	1116.208984375	1588.159545898438	201.2874603271484	966.0867919921875	1558.918701171875	70.82131958007812	1038.704711914062	930.5388793945312	-28.09773063659668	1225.775756835938	968.282958984375	239.692138671875	1153.96923828125	943.040771484375	-11.52152061462402	1161.800415039062	458.4542236328125	-46.14106750488281	1135.15625	589.0286254882812	-42.94974136352539	803.67626953125	178.5858001708984	6.891956329345703	980.1278686523438	308.7122802734375	-33.96596908569336	962.3783569335938	36.64545059204102	46.50012969970703	913.4718017578125	90.65552520751953	83.96991729736328	881.6782836914062	80.77651214599609	-15.46158218383789	789.6292724609375	207.6060638427734	66.70305633544922	1222.046020507812	468.2745971679688	261.6385498046875	1219.828002929688	734.1183471679688	298.1891784667969	1185.753662109375	43.01636505126953	216.7422180175781	1237.123046875	342.046875	239.7671203613281	1354.961791992188	25.23760414123535	127.1043853759766	1275.3984375	35.21263885498047	109.3515243530273	1267.582397460938	32.72175216674805	211.839111328125	1105.247436523438	36.56465911865234	172.8705902099609	1242.533447265625	754.6985473632812	411.8639831542969	1183.056396484375	747.3250732421875	445.7611694335938	1109.285522460938	951.4500732421875	322.5538024902344	nan	nan	nan	nan	nan	nan	nan	nan	nan	
